<svg width="41" height="42" viewBox="0 0 41 42" fill="none" xmlns="http://www.w3.org/2000/svg">
<g clip-path="url(#clip0_152_59)">
<path fill-rule="evenodd" clip-rule="evenodd" d="M14.2146 1.01611C11.9582 1.01611 9.7943 1.91245 8.19881 3.50794L0.5 11.2067V14.7307C0.5 17.2204 1.56944 19.4603 3.27401 21.0161C1.56944 22.5719 0.5 24.8118 0.5 27.3015V30.8255L8.19881 38.5243C9.7943 40.1198 11.9582 41.0161 14.2146 41.0161C16.7043 41.0161 18.9442 39.9467 20.5 38.2421C22.0558 39.9467 24.2957 41.0161 26.7854 41.0161C29.0418 41.0161 31.2057 40.1198 32.8012 38.5243L40.5 30.8255V27.3015C40.5 24.8118 39.4306 22.5719 37.726 21.0161C39.4306 19.4603 40.5 17.2204 40.5 14.7307V11.2067L32.8012 3.50794C31.2057 1.91245 29.0418 1.01611 26.7854 1.01611C24.2957 1.01611 22.0558 2.08555 20.5 3.79012C18.9442 2.08555 16.7043 1.01611 14.2146 1.01611ZM26.2588 21.0161C26.1629 20.9286 26.0688 20.8387 25.9766 20.7465L20.5 15.2699L15.0234 20.7465C14.9312 20.8387 14.8371 20.9286 14.7412 21.0161C14.8371 21.1036 14.9312 21.1935 15.0234 21.2857L20.5 26.7623L25.9766 21.2857C26.0688 21.1935 26.1629 21.1036 26.2588 21.0161ZM22.7222 30.8255V32.5085C22.7222 34.7525 24.5414 36.5717 26.7854 36.5717C27.863 36.5717 28.8965 36.1436 29.6585 35.3816L36.0556 28.9845V27.3015C36.0556 25.0575 34.2364 23.2383 31.9924 23.2383C30.9148 23.2383 29.8813 23.6664 29.1193 24.4284L22.7222 30.8255ZM18.2778 30.8255L11.8807 24.4284C11.1187 23.6664 10.0852 23.2383 9.00762 23.2383C6.76359 23.2383 4.94444 25.0575 4.94444 27.3015V28.9845L11.3415 35.3816C12.1035 36.1436 13.137 36.5717 14.2146 36.5717C16.4586 36.5717 18.2778 34.7525 18.2778 32.5085V30.8255ZM18.2778 9.52373V11.2067L11.8807 17.6038C11.1187 18.3658 10.0852 18.7939 9.00762 18.7939C6.76359 18.7939 4.94444 16.9747 4.94444 14.7307V13.0477L11.3415 6.65063C12.1035 5.88864 13.137 5.46056 14.2146 5.46056C16.4586 5.46056 18.2778 7.2797 18.2778 9.52373ZM29.1193 17.6038L22.7222 11.2067V9.52373C22.7222 7.2797 24.5414 5.46056 26.7854 5.46056C27.863 5.46056 28.8965 5.88864 29.6585 6.65063L36.0556 13.0477V14.7307C36.0556 16.9747 34.2364 18.7939 31.9924 18.7939C30.9148 18.7939 29.8813 18.3658 29.1193 17.6038Z" fill="#FF630B"/>
</g>
<defs>
<clipPath id="clip0_152_59">
<rect width="40" height="41" fill="white" transform="translate(0.5 0.5)"/>
</clipPath>
</defs>
</svg>
